P1
10 10
1011110101
0000101001
0001111101
1110101000
1100010111
1111110110
0001110001
1001110010
0111010010
1010110011
